<svg xmlns="http://www.w3.org/2000/svg" viewBox="0 0 1440 900" preserveAspectRatio="xMidYMax slice" role="img" aria-label="Illustrated misty forest canopy">
  <defs>
    <linearGradient id="sky" x1="0" y1="0" x2="0" y2="1">
      <stop offset="0%" stop-color="#F8FAF8"/>
      <stop offset="50%" stop-color="#EDF6F1"/>
      <stop offset="100%" stop-color="#DCEEE4"/>
    </linearGradient>
    <linearGradient id="haze" x1="0" y1="0" x2="0" y2="1">
      <stop offset="0%" stop-color="#F4F9F6" stop-opacity="0.95"/>
      <stop offset="100%" stop-color="#F4F9F6" stop-opacity="0"/>
    </linearGradient>
    <linearGradient id="floor" x1="0" y1="0" x2="0" y2="1">
      <stop offset="0%" stop-color="#F7F9F7" stop-opacity="0"/>
      <stop offset="78%" stop-color="#F7F9F7" stop-opacity="0.9"/>
      <stop offset="100%" stop-color="#F7F9F7" stop-opacity="1"/>
    </linearGradient>
    <linearGradient id="shaft" x1="0.3" y1="0" x2="0" y2="1">
      <stop offset="0%" stop-color="#FFFFFF" stop-opacity="0.85"/>
      <stop offset="100%" stop-color="#FFFFFF" stop-opacity="0"/>
    </linearGradient>
  </defs>

  <rect width="1440" height="900" fill="url(#sky)"/>

  <g opacity="0.55">
    <polygon points="250,-40 400,-40 235,700 130,700" fill="url(#shaft)"/>
    <polygon points="655,-40 745,-40 590,660 520,660" fill="url(#shaft)"/>
    <polygon points="1030,-40 1195,-40 1010,720 900,720" fill="url(#shaft)"/>
  </g>

  <path d="M-80 900L-80 585L-80.0 585.0L-77.4 559.5L-73.3 559.5L-69.5 534.0L-66.5 534.0L-61.5 508.5L-50.3 508.5L-34.0 534.0L-39.1 508.5L-27.3 559.5L-31.1 534.0L-20.6 585.0L-23.2 559.5L-47.1 585.0L-44.4 554.2L-40.0 554.2L-36.0 523.3L-32.9 523.3L-27.7 492.5L-15.9 492.5L1.2 523.3L-4.1 492.5L8.3 554.2L4.3 523.3L15.3 585.0L12.6 554.2L-13.5 585.0L-11.6 559.5L-8.6 559.5L-5.8 534.0L-3.7 534.0L-0.1 508.5L8.0 508.5L19.8 534.0L16.2 508.5L24.7 559.5L21.9 534.0L29.6 585.0L27.7 559.5L10.4 585.0L12.9 560.3L16.8 560.3L20.5 535.7L23.3 535.7L28.1 511.0L38.9 511.0L54.5 535.7L49.7 511.0L61.0 560.3L57.3 535.7L67.5 585.0L65.0 560.3L44.9 585.0L47.4 557.2L51.3 557.2L54.9 529.3L57.6 529.3L62.4 501.5L72.9 501.5L88.2 529.3L83.5 501.5L94.6 557.2L91.0 529.3L100.9 585.0L98.5 557.2L76.8 585.0L78.9 565.4L82.1 565.4L85.0 545.7L87.3 545.7L91.2 526.1L99.9 526.1L112.5 545.7L108.6 526.1L117.7 565.4L114.8 545.7L122.9 585.0L120.9 565.4L99.0 585.0L101.4 562.1L105.2 562.1L108.8 539.1L111.5 539.1L116.1 516.2L126.5 516.2L141.6 539.1L136.9 516.2L147.8 562.1L144.3 539.1L154.0 585.0L151.6 562.1L129.2 585.0L131.1 558.4L134.3 558.4L137.1 531.8L139.3 531.8L143.1 505.1L151.6 505.1L163.9 531.8L160.1 505.1L168.9 558.4L166.1 531.8L174.0 585.0L172.1 558.4L153.7 585.0L156.1 554.3L160.0 554.3L163.6 523.5L166.4 523.5L171.1 492.8L181.6 492.8L196.9 523.5L192.2 492.8L203.3 554.3L199.7 523.5L209.6 585.0L207.2 554.3L187.1 585.0L190.1 563.0L194.9 563.0L199.4 541.1L202.8 541.1L208.6 519.1L221.7 519.1L240.6 541.1L234.8 519.1L248.5 563.0L244.0 541.1L256.3 585.0L253.3 563.0L225.6 585.0L227.8 567.4L231.3 567.4L234.4 549.8L236.9 549.8L241.1 532.2L250.4 532.2L264.0 549.8L259.8 532.2L269.6 567.4L266.4 549.8L275.2 585.0L273.0 567.4L254.5 585.0L257.9 563.4L263.3 563.4L268.2 541.8L272.0 541.8L278.5 520.2L293.1 520.2L314.2 541.8L307.7 520.2L322.9 563.4L318.0 541.8L331.7 585.0L328.3 563.4L289.4 585.0L292.4 562.5L297.2 562.5L301.5 540.1L304.9 540.1L310.7 517.6L323.6 517.6L342.2 540.1L336.4 517.6L349.9 562.5L345.6 540.1L357.7 585.0L354.7 562.5L326.4 585.0L329.1 554.2L333.4 554.2L337.4 523.5L340.4 523.5L345.7 492.7L357.4 492.7L374.3 523.5L369.1 492.7L381.3 554.2L377.3 523.5L388.3 585.0L385.6 554.2L354.4 585.0L357.5 554.7L362.6 554.7L367.2 524.3L370.7 524.3L376.9 494.0L390.5 494.0L410.3 524.3L404.2 494.0L418.5 554.7L413.8 524.3L426.6 585.0L423.5 554.7L390.8 585.0L392.6 567.1L395.5 567.1L398.1 549.1L400.1 549.1L403.6 531.2L411.3 531.2L422.5 549.1L419.1 531.2L427.2 567.1L424.5 549.1L431.8 585.0L430.0 567.1L415.6 585.0L418.2 559.6L422.3 559.6L426.1 534.1L429.0 534.1L434.0 508.7L445.1 508.7L461.2 534.1L456.2 508.7L467.8 559.6L464.1 534.1L474.5 585.0L471.9 559.6L443.9 585.0L446.4 556.1L450.6 556.1L454.4 527.2L457.3 527.2L462.3 498.3L473.4 498.3L489.6 527.2L484.6 498.3L496.2 556.1L492.5 527.2L502.9 585.0L500.4 556.1L469.8 585.0L472.7 567.6L477.1 567.6L481.3 550.2L484.4 550.2L489.9 532.7L502.1 532.7L519.7 550.2L514.2 532.7L527.0 567.6L522.9 550.2L534.3 585.0L531.5 567.6L503.2 585.0L506.0 551.9L510.5 551.9L514.6 518.9L517.8 518.9L523.2 485.8L535.3 485.8L552.8 518.9L547.4 485.8L560.1 551.9L556.0 518.9L567.3 585.0L564.5 551.9L536.2 585.0L538.7 562.5L542.7 562.5L546.4 539.9L549.3 539.9L554.2 517.4L565.0 517.4L580.8 539.9L575.9 517.4L587.4 562.5L583.7 539.9L593.9 585.0L591.4 562.5L561.0 585.0L564.0 561.3L568.7 561.3L573.1 537.7L576.4 537.7L582.2 514.0L595.0 514.0L613.5 537.7L607.8 514.0L621.2 561.3L616.9 537.7L628.9 585.0L625.9 561.3L600.9 585.0L603.1 559.1L606.7 559.1L610.0 533.2L612.5 533.2L616.9 507.3L626.6 507.3L640.6 533.2L636.3 507.3L646.5 559.1L643.2 533.2L652.3 585.0L650.1 559.1L626.4 585.0L629.6 565.7L634.6 565.7L639.2 546.3L642.7 546.3L648.8 527.0L662.4 527.0L682.1 546.3L676.0 527.0L690.3 565.7L685.6 546.3L698.4 585.0L695.3 565.7L658.5 585.0L661.3 557.9L665.8 557.9L669.9 530.9L673.0 530.9L678.4 503.8L690.5 503.8L708.0 530.9L702.6 503.8L715.2 557.9L711.1 530.9L722.5 585.0L719.7 557.9L687.2 585.0L689.5 562.0L693.3 562.0L696.8 539.1L699.4 539.1L704.0 516.1L714.2 516.1L728.9 539.1L724.4 516.1L735.1 562.0L731.6 539.1L741.2 585.0L738.8 562.0L721.0 585.0L724.2 557.8L729.2 557.8L733.8 530.7L737.4 530.7L743.5 503.5L757.2 503.5L777.0 530.7L770.9 503.5L785.2 557.8L780.6 530.7L793.4 585.0L790.2 557.8L758.0 585.0L761.2 558.5L766.4 558.5L771.3 532.1L774.9 532.1L781.3 505.6L795.4 505.6L815.9 532.1L809.6 505.6L824.4 558.5L819.6 532.1L832.9 585.0L829.6 558.5L796.6 585.0L798.8 559.8L802.4 559.8L805.8 534.5L808.3 534.5L812.7 509.3L822.4 509.3L836.6 534.5L832.2 509.3L842.4 559.8L839.1 534.5L848.3 585.0L846.0 559.8L818.4 585.0L821.6 563.3L826.7 563.3L831.4 541.6L835.0 541.6L841.3 519.9L855.1 519.9L875.2 541.6L869.0 519.9L883.5 563.3L878.8 541.6L891.9 585.0L888.7 563.3L855.8 585.0L857.8 567.0L860.9 567.0L863.8 549.0L866.0 549.0L869.8 531.0L878.2 531.0L890.4 549.0L886.6 531.0L895.5 567.0L892.6 549.0L900.5 585.0L898.6 567.0L881.9 585.0L884.6 559.8L888.8 559.8L892.7 534.5L895.7 534.5L900.8 509.3L912.3 509.3L928.9 534.5L923.8 509.3L935.8 559.8L931.9 534.5L942.6 585.0L940.0 559.8L908.8 585.0L911.5 558.0L915.8 558.0L919.7 530.9L922.7 530.9L927.9 503.9L939.5 503.9L956.2 530.9L951.0 503.9L963.1 558.0L959.2 530.9L970.1 585.0L967.4 558.0L946.5 585.0L949.8 558.4L955.1 558.4L960.1 531.7L963.8 531.7L970.3 505.1L984.7 505.1L1005.7 531.7L999.2 505.1L1014.3 558.4L1009.4 531.7L1023.0 585.0L1019.7 558.4L988.8 585.0L991.5 560.2L995.8 560.2L999.7 535.4L1002.8 535.4L1008.0 510.6L1019.7 510.6L1036.6 535.4L1031.3 510.6L1043.6 560.2L1039.6 535.4L1050.6 585.0L1047.9 560.2L1016.0 585.0L1018.8 557.5L1023.4 557.5L1027.5 530.0L1030.7 530.0L1036.2 502.5L1048.4 502.5L1066.1 530.0L1060.6 502.5L1073.4 557.5L1069.3 530.0L1080.8 585.0L1077.9 557.5L1057.4 585.0L1060.3 566.1L1065.0 566.1L1069.3 547.2L1072.6 547.2L1078.2 528.2L1090.9 528.2L1109.2 547.2L1103.5 528.2L1116.8 566.1L1112.5 547.2L1124.4 585.0L1121.5 566.1L1087.6 585.0L1090.4 552.1L1094.9 552.1L1099.0 519.3L1102.2 519.3L1107.7 486.4L1119.9 486.4L1137.5 519.3L1132.0 486.4L1144.8 552.1L1140.7 519.3L1152.1 585.0L1149.3 552.1L1119.6 585.0L1122.9 562.1L1128.1 562.1L1132.9 539.1L1136.6 539.1L1143.0 516.2L1157.2 516.2L1177.7 539.1L1171.3 516.2L1186.2 562.1L1181.4 539.1L1194.7 585.0L1191.5 562.1L1163.7 585.0L1166.6 567.1L1171.1 567.1L1175.2 549.3L1178.4 549.3L1183.9 531.4L1196.1 531.4L1213.9 549.3L1208.4 531.4L1221.2 567.1L1217.1 549.3L1228.6 585.0L1225.7 567.1L1195.0 585.0L1197.9 560.1L1202.4 560.1L1206.6 535.3L1209.8 535.3L1215.3 510.4L1227.7 510.4L1245.5 535.3L1240.0 510.4L1252.9 560.1L1248.7 535.3L1260.3 585.0L1257.4 560.1L1231.5 585.0L1233.6 556.4L1237.0 556.4L1240.1 527.7L1242.5 527.7L1246.6 499.1L1255.7 499.1L1269.0 527.7L1264.9 499.1L1274.5 556.4L1271.4 527.7L1280.0 585.0L1277.9 556.4L1255.2 585.0L1257.1 559.1L1260.1 559.1L1262.9 533.2L1265.1 533.2L1268.7 507.3L1277.0 507.3L1288.8 533.2L1285.2 507.3L1293.8 559.1L1291.0 533.2L1298.7 585.0L1296.8 559.1L1277.1 585.0L1279.2 554.7L1282.4 554.7L1285.4 524.4L1287.7 524.4L1291.7 494.2L1300.6 494.2L1313.4 524.4L1309.4 494.2L1318.7 554.7L1315.7 524.4L1324.0 585.0L1322.0 554.7L1306.5 585.0L1309.5 568.2L1314.2 568.2L1318.6 551.5L1322.0 551.5L1327.8 534.7L1340.7 534.7L1359.4 551.5L1353.7 534.7L1367.2 568.2L1362.8 551.5L1375.0 585.0L1372.0 568.2L1341.8 585.0L1344.9 558.8L1350.0 558.8L1354.6 532.7L1358.2 532.7L1364.3 506.5L1377.9 506.5L1397.7 532.7L1391.6 506.5L1405.9 558.8L1401.2 532.7L1414.1 585.0L1410.9 558.8L1383.3 585.0L1386.1 568.3L1390.5 568.3L1394.6 551.6L1397.8 551.6L1403.2 535.0L1415.2 535.0L1432.7 551.6L1427.3 535.0L1439.9 568.3L1435.8 551.6L1447.2 585.0L1444.4 568.3L1417.1 585.0L1419.7 565.6L1423.7 565.6L1427.5 546.2L1430.4 546.2L1435.3 526.8L1446.4 526.8L1462.5 546.2L1457.5 526.8L1469.1 565.6L1465.3 546.2L1475.8 585.0L1473.2 565.6L1452.1 585.0L1454.0 566.9L1457.0 566.9L1459.7 548.8L1461.8 548.8L1465.3 530.8L1473.4 530.8L1484.9 548.8L1481.4 530.8L1489.8 566.9L1487.0 548.8L1494.6 585.0L1492.7 566.9L1479.3 585.0L1482.0 556.6L1486.4 556.6L1490.5 528.2L1493.6 528.2L1499.0 499.8L1510.9 499.8L1528.2 528.2L1522.9 499.8L1535.4 556.6L1531.3 528.2L1542.6 585.0L1539.8 556.6L1517.5 585.0L1520.7 552.0L1526.0 552.0L1530.8 518.9L1534.5 518.9L1540.8 485.9L1554.9 485.9L1575.4 518.9L1569.1 485.9L1583.9 552.0L1579.1 518.9L1592.4 585.0L1589.1 552.0L1520 585L1520 900Z" fill="#B6D5C4" opacity="0.45"/>
  <rect x="0" y="465" width="1440" height="230" fill="url(#haze)" opacity="0.72"/>
  <path d="M-80 900L-80 660L-80.0 660.0L-76.9 634.3L-72.0 634.3L-67.5 608.7L-64.0 608.7L-58.0 583.0L-44.7 583.0L-25.4 608.7L-31.4 583.0L-17.4 634.3L-22.0 608.7L-9.4 660.0L-12.5 634.3L-50.0 660.0L-47.4 614.2L-43.3 614.2L-39.4 568.4L-36.5 568.4L-31.4 522.7L-20.2 522.7L-3.8 568.4L-8.9 522.7L3.0 614.2L-0.9 568.4L9.7 660.0L7.1 614.2L-21.8 660.0L-19.0 632.7L-14.5 632.7L-10.3 605.4L-7.2 605.4L-1.7 578.1L10.5 578.1L28.1 605.4L22.6 578.1L35.4 632.7L31.2 605.4L42.7 660.0L39.9 632.7L12.0 660.0L15.3 625.2L20.6 625.2L25.5 590.4L29.2 590.4L35.6 555.6L49.9 555.6L70.7 590.4L64.3 555.6L79.3 625.2L74.4 590.4L87.9 660.0L84.6 625.2L52.5 660.0L55.7 626.4L60.7 626.4L65.4 592.8L69.0 592.8L75.2 559.1L89.0 559.1L109.0 592.8L102.8 559.1L117.3 626.4L112.6 592.8L125.5 660.0L122.3 626.4L86.5 660.0L88.7 620.2L92.4 620.2L95.7 580.3L98.3 580.3L102.7 540.5L112.6 540.5L126.9 580.3L122.4 540.5L132.8 620.2L129.4 580.3L138.7 660.0L136.4 620.2L112.4 660.0L116.2 612.8L122.1 612.8L127.6 565.7L131.8 565.7L139.0 518.5L155.2 518.5L178.5 565.7L171.3 518.5L188.2 612.8L182.7 565.7L197.9 660.0L194.1 612.8L159.9 660.0L163.0 614.9L167.9 614.9L172.5 569.9L176.0 569.9L182.0 524.8L195.4 524.8L214.8 569.9L208.8 524.8L222.8 614.9L218.3 569.9L230.9 660.0L227.7 614.9L193.6 660.0L197.6 630.5L204.0 630.5L209.9 601.0L214.3 601.0L222.1 571.5L239.3 571.5L264.3 601.0L256.6 571.5L274.6 630.5L268.8 601.0L285.0 660.0L281.0 630.5L238.7 660.0L241.3 630.2L245.5 630.2L249.4 600.4L252.3 600.4L257.4 570.6L268.7 570.6L285.1 600.4L280.1 570.6L292.0 630.2L288.1 600.4L298.8 660.0L296.1 630.2L265.7 660.0L269.3 618.5L274.9 618.5L280.1 577.0L284.0 577.0L290.9 535.6L306.1 535.6L328.2 577.0L321.4 535.6L337.3 618.5L332.2 577.0L346.5 660.0L343.0 618.5L305.4 660.0L309.5 631.2L316.0 631.2L322.0 602.3L326.6 602.3L334.5 573.5L352.1 573.5L377.7 602.3L369.8 573.5L388.3 631.2L382.3 602.3L398.9 660.0L394.8 631.2L361.8 660.0L365.4 627.0L371.1 627.0L376.4 594.0L380.5 594.0L387.4 561.1L402.9 561.1L425.4 594.0L418.5 561.1L434.8 627.0L429.5 594.0L444.1 660.0L440.5 627.0L404.8 660.0L408.4 625.6L414.1 625.6L419.3 591.1L423.3 591.1L430.3 556.7L445.7 556.7L468.1 591.1L461.2 556.7L477.3 625.6L472.1 591.1L486.6 660.0L483.0 625.6L443.0 660.0L445.5 617.1L449.4 617.1L453.0 574.3L455.8 574.3L460.5 531.4L471.1 531.4L486.4 574.3L481.7 531.4L492.7 617.1L489.2 574.3L499.1 660.0L496.6 617.1L475.7 660.0L478.5 622.9L483.0 622.9L487.2 585.9L490.4 585.9L495.8 548.8L508.1 548.8L525.8 585.9L520.3 548.8L533.1 622.9L529.0 585.9L540.4 660.0L537.6 622.9L512.5 660.0L515.2 621.2L519.5 621.2L523.5 582.3L526.6 582.3L531.8 543.5L543.5 543.5L560.4 582.3L555.2 543.5L567.4 621.2L563.5 582.3L574.5 660.0L571.7 621.2L540.4 660.0L543.1 617.5L547.5 617.5L551.6 575.0L554.7 575.0L560.0 532.4L572.0 532.4L589.2 575.0L583.9 532.4L596.4 617.5L592.3 575.0L603.6 660.0L600.8 617.5L567.2 660.0L571.2 627.3L577.6 627.3L583.5 594.6L588.0 594.6L595.8 561.9L613.1 561.9L638.1 594.6L630.4 561.9L648.5 627.3L642.7 594.6L658.9 660.0L654.9 627.3L613.1 660.0L616.7 630.0L622.3 630.0L627.6 599.9L631.6 599.9L638.4 569.9L653.8 569.9L676.0 599.9L669.2 569.9L685.3 630.0L680.0 599.9L694.5 660.0L690.9 630.0L649.9 660.0L652.7 632.8L657.2 632.8L661.3 605.7L664.5 605.7L670.0 578.5L682.1 578.5L699.7 605.7L694.3 578.5L707.0 632.8L702.9 605.7L714.4 660.0L711.5 632.8L688.2 660.0L692.2 626.2L698.4 626.2L704.2 592.3L708.6 592.3L716.2 558.5L733.2 558.5L757.9 592.3L750.3 558.5L768.1 626.2L762.3 592.3L778.3 660.0L774.3 626.2L733.9 660.0L736.5 630.5L740.6 630.5L744.4 601.0L747.3 601.0L752.2 571.4L763.4 571.4L779.5 601.0L774.5 571.4L786.1 630.5L782.4 601.0L792.8 660.0L790.2 630.5L761.9 660.0L764.4 616.9L768.3 616.9L771.8 573.8L774.6 573.8L779.3 530.7L789.8 530.7L805.0 573.8L800.3 530.7L811.3 616.9L807.7 573.8L817.6 660.0L815.1 616.9L792.1 660.0L795.3 625.6L800.3 625.6L805.0 591.2L808.6 591.2L814.7 556.8L828.5 556.8L848.3 591.2L842.2 556.8L856.6 625.6L851.9 591.2L864.8 660.0L861.6 625.6L832.4 660.0L835.2 626.6L839.6 626.6L843.7 593.2L846.9 593.2L852.3 559.8L864.3 559.8L881.8 593.2L876.4 559.8L889.1 626.6L885.0 593.2L896.3 660.0L893.5 626.6L863.3 660.0L866.6 621.2L871.8 621.2L876.7 582.4L880.4 582.4L886.8 543.5L901.0 543.5L921.6 582.4L915.2 543.5L930.1 621.2L925.3 582.4L938.7 660.0L935.4 621.2L908.4 660.0L910.8 622.1L914.6 622.1L918.2 584.3L920.9 584.3L925.6 546.4L936.0 546.4L951.1 584.3L946.4 546.4L957.4 622.1L953.8 584.3L963.7 660.0L961.2 622.1L933.0 660.0L936.2 629.1L941.2 629.1L945.9 598.1L949.4 598.1L955.5 567.2L969.2 567.2L989.0 598.1L982.9 567.2L997.2 629.1L992.5 598.1L1005.4 660.0L1002.2 629.1L968.2 660.0L970.8 628.1L975.0 628.1L978.9 596.3L981.8 596.3L986.9 564.4L998.3 564.4L1014.7 596.3L1009.6 564.4L1021.5 628.1L1017.7 596.3L1028.4 660.0L1025.7 628.1L1003.7 660.0L1007.8 618.2L1014.4 618.2L1020.4 576.3L1025.1 576.3L1033.1 534.5L1050.9 534.5L1076.6 576.3L1068.7 534.5L1087.3 618.2L1081.3 576.3L1098.0 660.0L1093.9 618.2L1052.0 660.0L1054.3 623.2L1058.0 623.2L1061.3 586.3L1063.9 586.3L1068.4 549.5L1078.3 549.5L1092.7 586.3L1088.3 549.5L1098.7 623.2L1095.3 586.3L1104.7 660.0L1102.4 623.2L1081.5 660.0L1084.2 616.0L1088.4 616.0L1092.3 572.0L1095.3 572.0L1100.5 528.0L1112.0 528.0L1128.6 572.0L1123.5 528.0L1135.5 616.0L1131.6 572.0L1142.4 660.0L1139.7 616.0L1110.5 660.0L1113.6 625.3L1118.5 625.3L1123.0 590.7L1126.5 590.7L1132.5 556.0L1145.8 556.0L1165.1 590.7L1159.1 556.0L1173.1 625.3L1168.6 590.7L1181.1 660.0L1178.0 625.3L1148.8 660.0L1151.1 616.9L1154.9 616.9L1158.3 573.9L1161.0 573.9L1165.5 530.8L1175.7 530.8L1190.4 573.9L1185.8 530.8L1196.5 616.9L1193.0 573.9L1202.6 660.0L1200.2 616.9L1173.4 660.0L1176.3 610.9L1180.9 610.9L1185.1 561.9L1188.4 561.9L1194.0 512.8L1206.4 512.8L1224.5 561.9L1218.9 512.8L1232.0 610.9L1227.7 561.9L1239.5 660.0L1236.6 610.9L1214.7 660.0L1218.4 631.0L1224.4 631.0L1229.8 601.9L1234.0 601.9L1241.2 572.9L1257.3 572.9L1280.6 601.9L1273.4 572.9L1290.3 631.0L1284.8 601.9L1299.9 660.0L1296.2 631.0L1267.5 660.0L1271.7 627.9L1278.4 627.9L1284.5 595.9L1289.3 595.9L1297.4 563.8L1315.5 563.8L1341.8 595.9L1333.7 563.8L1352.7 627.9L1346.5 595.9L1363.6 660.0L1359.4 627.9L1319.5 660.0L1321.8 620.2L1325.4 620.2L1328.8 580.4L1331.4 580.4L1335.8 540.6L1345.7 540.6L1359.9 580.4L1355.5 540.6L1365.9 620.2L1362.5 580.4L1371.8 660.0L1369.5 620.2L1346.9 660.0L1349.4 612.8L1353.3 612.8L1356.9 565.5L1359.7 565.5L1364.5 518.3L1375.2 518.3L1390.6 565.5L1385.8 518.3L1397.0 612.8L1393.4 565.5L1403.4 660.0L1400.9 612.8L1375.6 660.0L1378.5 631.5L1383.2 631.5L1387.5 603.1L1390.9 603.1L1396.6 574.6L1409.3 574.6L1427.7 603.1L1422.0 574.6L1435.4 631.5L1431.0 603.1L1443.0 660.0L1440.1 631.5L1406.0 660.0L1408.6 621.0L1412.7 621.0L1416.4 582.0L1419.3 582.0L1424.3 543.0L1435.3 543.0L1451.4 582.0L1446.4 543.0L1458.0 621.0L1454.3 582.0L1464.7 660.0L1462.1 621.0L1435.7 660.0L1439.7 628.1L1446.0 628.1L1451.8 596.2L1456.2 596.2L1463.9 564.3L1481.0 564.3L1505.7 596.2L1498.1 564.3L1516.0 628.1L1510.2 596.2L1526.2 660.0L1522.3 628.1L1491.3 660.0L1494.1 629.8L1498.6 629.8L1502.7 599.6L1505.8 599.6L1511.2 569.4L1523.2 569.4L1540.7 599.6L1535.3 569.4L1547.9 629.8L1543.8 599.6L1555.1 660.0L1552.3 629.8L1520 660L1520 900Z" fill="#87BBA1" opacity="0.55"/>
  <rect x="0" y="540" width="1440" height="230" fill="url(#haze)" opacity="0.58"/>
  <path d="M-80 900L-80 745L-80.0 745.0L-74.8 702.9L-66.6 702.9L-59.1 660.8L-53.3 660.8L-43.3 618.7L-21.0 618.7L11.2 660.8L1.3 618.7L24.6 702.9L17.1 660.8L38.0 745.0L32.8 702.9L-16.7 745.0L-13.8 709.7L-9.1 709.7L-4.8 674.3L-1.5 674.3L4.2 639.0L16.9 639.0L35.3 674.3L29.6 639.0L42.9 709.7L38.6 674.3L50.5 745.0L47.6 709.7L22.5 745.0L25.4 709.7L30.0 709.7L34.3 674.4L37.6 674.4L43.2 639.1L55.7 639.1L73.8 674.4L68.2 639.1L81.4 709.7L77.1 674.4L88.9 745.0L86.0 709.7L63.2 745.0L66.5 703.4L71.6 703.4L76.4 661.9L80.1 661.9L86.3 620.3L100.4 620.3L120.7 661.9L114.4 620.3L129.1 703.4L124.3 661.9L137.5 745.0L134.2 703.4L108.4 745.0L113.4 709.9L121.3 709.9L128.7 674.7L134.3 674.7L144.0 639.6L165.6 639.6L196.9 674.7L187.2 639.6L209.9 709.9L202.5 674.7L222.8 745.0L217.8 709.9L167.9 745.0L171.4 700.2L176.9 700.2L181.9 655.4L185.8 655.4L192.4 610.6L207.3 610.6L228.8 655.4L222.1 610.6L237.7 700.2L232.7 655.4L246.6 745.0L243.2 700.2L213.0 745.0L217.4 682.0L224.5 682.0L231.1 619.1L236.1 619.1L244.7 556.1L263.9 556.1L291.7 619.1L283.1 556.1L303.2 682.0L296.7 619.1L314.8 745.0L310.3 682.0L261.1 745.0L264.0 682.1L268.7 682.1L273.0 619.1L276.3 619.1L282.0 556.2L294.6 556.2L313.0 619.1L307.3 556.2L320.6 682.1L316.3 619.1L328.2 745.0L325.3 682.1L295.0 745.0L299.3 698.2L306.1 698.2L312.4 651.5L317.2 651.5L325.5 604.7L344.0 604.7L370.8 651.5L362.5 604.7L381.9 698.2L375.6 651.5L393.0 745.0L388.7 698.2L353.8 745.0L358.2 692.0L365.2 692.0L371.7 639.0L376.6 639.0L385.1 585.9L404.1 585.9L431.5 639.0L423.1 585.9L442.9 692.0L436.5 639.0L454.3 745.0L449.9 692.0L418.0 745.0L421.4 693.0L426.8 693.0L431.7 641.0L435.6 641.0L442.1 589.1L456.8 589.1L478.0 641.0L471.4 589.1L486.7 693.0L481.8 641.0L495.5 745.0L492.1 693.0L454.5 745.0L457.3 685.5L461.8 685.5L466.0 626.0L469.1 626.0L474.6 566.5L486.8 566.5L504.5 626.0L499.0 566.5L511.8 685.5L507.7 626.0L519.2 745.0L516.4 685.5L493.8 745.0L497.8 683.0L504.2 683.0L510.1 620.9L514.6 620.9L522.3 558.9L539.6 558.9L564.7 620.9L556.9 558.9L575.1 683.0L569.2 620.9L585.5 745.0L581.5 683.0L547.6 745.0L552.3 680.0L559.7 680.0L566.6 615.1L571.8 615.1L580.9 550.1L601.0 550.1L630.2 615.1L621.2 550.1L642.3 680.0L635.5 615.1L654.5 745.0L649.8 680.0L605.4 745.0L609.8 702.2L617.0 702.2L623.6 659.4L628.6 659.4L637.3 616.6L656.7 616.6L684.7 659.4L676.0 616.6L696.3 702.2L689.8 659.4L708.0 745.0L703.5 702.2L654.4 745.0L659.1 709.9L666.5 709.9L673.4 674.7L678.6 674.7L687.7 639.6L707.9 639.6L737.1 674.7L728.1 639.6L749.3 709.9L742.4 674.7L761.4 745.0L756.7 709.9L706.9 745.0L710.9 688.0L717.3 688.0L723.2 631.0L727.7 631.0L735.5 573.9L752.8 573.9L777.8 631.0L770.1 573.9L788.2 688.0L782.3 631.0L798.6 745.0L794.6 688.0L761.6 745.0L764.8 687.7L770.0 687.7L774.8 630.5L778.4 630.5L784.7 573.2L798.8 573.2L819.1 630.5L812.8 573.2L827.5 687.7L822.7 630.5L835.9 745.0L832.7 687.7L794.5 745.0L799.6 683.6L807.6 683.6L815.0 622.2L820.7 622.2L830.4 560.8L852.2 560.8L883.7 622.2L874.0 560.8L896.8 683.6L889.4 622.2L909.9 745.0L904.8 683.6L844.9 745.0L850.0 701.2L858.1 701.2L865.6 657.4L871.4 657.4L881.2 613.6L903.2 613.6L935.1 657.4L925.3 613.6L948.3 701.2L940.9 657.4L961.6 745.0L956.5 701.2L904.4 745.0L907.3 698.4L912.0 698.4L916.3 651.9L919.6 651.9L925.2 605.3L937.9 605.3L956.2 651.9L950.5 605.3L963.8 698.4L959.5 651.9L971.4 745.0L968.4 698.4L946.6 745.0L951.3 683.1L958.9 683.1L965.8 621.1L971.2 621.1L980.3 559.2L1000.8 559.2L1030.4 621.1L1021.3 559.2L1042.7 683.1L1035.8 621.1L1055.0 745.0L1050.3 683.1L1014.0 745.0L1018.3 705.7L1025.1 705.7L1031.4 666.5L1036.2 666.5L1044.5 627.2L1063.1 627.2L1089.9 666.5L1081.6 627.2L1101.0 705.7L1094.7 666.5L1112.1 745.0L1107.8 705.7L1056.8 745.0L1061.5 687.7L1068.9 687.7L1075.7 630.5L1081.0 630.5L1090.0 573.2L1110.1 573.2L1139.2 630.5L1130.2 573.2L1151.3 687.7L1144.4 630.5L1163.4 745.0L1158.7 687.7L1109.5 745.0L1113.9 685.1L1121.1 685.1L1127.7 625.2L1132.7 625.2L1141.4 565.3L1160.7 565.3L1188.7 625.2L1180.1 565.3L1200.4 685.1L1193.8 625.2L1212.0 745.0L1207.5 685.1L1173.2 745.0L1178.3 681.7L1186.4 681.7L1193.8 618.4L1199.5 618.4L1209.3 555.2L1231.1 555.2L1262.8 618.4L1253.0 555.2L1275.9 681.7L1268.4 618.4L1289.0 745.0L1283.9 681.7L1228.9 745.0L1232.5 701.4L1238.4 701.4L1243.8 657.8L1248.0 657.8L1255.1 614.2L1271.0 614.2L1294.0 657.8L1286.9 614.2L1303.5 701.4L1298.1 657.8L1313.1 745.0L1309.4 701.4L1275.1 745.0L1277.9 699.3L1282.5 699.3L1286.7 653.6L1289.9 653.6L1295.5 607.9L1307.9 607.9L1325.9 653.6L1320.3 607.9L1333.3 699.3L1329.1 653.6L1340.7 745.0L1337.9 699.3L1315.9 745.0L1319.7 689.1L1325.9 689.1L1331.6 633.3L1335.9 633.3L1343.4 577.4L1360.0 577.4L1384.2 633.3L1376.7 577.4L1394.2 689.1L1388.5 633.3L1404.2 745.0L1400.3 689.1L1355.6 745.0L1358.8 693.5L1363.8 693.5L1368.5 642.0L1372.0 642.0L1378.2 590.5L1391.9 590.5L1411.8 642.0L1405.6 590.5L1420.0 693.5L1415.3 642.0L1428.2 745.0L1425.0 693.5L1388.8 745.0L1393.3 684.6L1400.6 684.6L1407.4 624.2L1412.5 624.2L1421.4 563.8L1441.2 563.8L1469.9 624.2L1461.0 563.8L1481.7 684.6L1475.0 624.2L1493.6 745.0L1489.0 684.6L1437.2 745.0L1440.7 688.7L1446.3 688.7L1451.5 632.3L1455.5 632.3L1462.3 576.0L1477.5 576.0L1499.5 632.3L1492.7 576.0L1508.7 688.7L1503.5 632.3L1517.8 745.0L1514.3 688.7L1477.0 745.0L1480.5 695.6L1486.0 695.6L1491.2 646.2L1495.1 646.2L1501.9 596.8L1517.0 596.8L1538.9 646.2L1532.1 596.8L1548.0 695.6L1542.8 646.2L1557.1 745.0L1553.6 695.6L1520 745L1520 900Z" fill="#48926F" opacity="0.68"/>
  <rect x="0" y="625" width="1440" height="230" fill="url(#haze)" opacity="0.43999999999999995"/>
  <path d="M-80 900L-80 840L-80.0 840.0L-75.1 771.2L-67.2 771.2L-59.9 702.4L-54.4 702.4L-44.8 633.5L-23.5 633.5L7.5 702.4L-2.1 633.5L20.3 771.2L13.0 702.4L33.1 840.0L28.1 771.2L-10.6 840.0L-5.1 796.7L3.6 796.7L11.6 753.3L17.7 753.3L28.2 710.0L51.8 710.0L85.9 753.3L75.4 710.0L100.1 796.7L92.1 753.3L114.2 840.0L108.8 796.7L47.3 840.0L52.3 782.2L60.3 782.2L67.7 724.4L73.3 724.4L83.0 666.6L104.7 666.6L136.0 724.4L126.3 666.6L149.0 782.2L141.6 724.4L162.0 840.0L157.0 782.2L105.4 840.0L110.3 768.1L118.0 768.1L125.1 696.2L130.6 696.2L140.0 624.3L161.0 624.3L191.4 696.2L182.0 624.3L204.0 768.1L196.9 696.2L216.6 840.0L211.8 768.1L167.5 840.0L172.9 783.1L181.6 783.1L189.6 726.1L195.8 726.1L206.3 669.2L229.9 669.2L264.1 726.1L253.5 669.2L278.2 783.1L270.2 726.1L292.4 840.0L286.9 783.1L240.2 840.0L244.8 765.7L252.1 765.7L258.9 691.5L264.0 691.5L272.9 617.2L292.7 617.2L321.4 691.5L312.6 617.2L333.3 765.7L326.6 691.5L345.2 840.0L340.6 765.7L295.4 840.0L300.2 765.9L307.8 765.9L314.8 691.9L320.2 691.9L329.4 617.8L350.1 617.8L380.0 691.9L370.7 617.8L392.3 765.9L385.3 691.9L404.7 840.0L400.0 765.9L363.9 840.0L369.0 761.3L377.2 761.3L384.7 682.5L390.5 682.5L400.4 603.8L422.6 603.8L454.7 682.5L444.8 603.8L468.0 761.3L460.5 682.5L481.3 840.0L476.2 761.3L418.4 840.0L421.9 792.9L427.4 792.9L432.4 745.9L436.3 745.9L443.0 698.8L457.8 698.8L479.4 745.9L472.7 698.8L488.3 792.9L483.3 745.9L497.2 840.0L493.8 792.9L468.1 840.0L473.7 772.6L482.7 772.6L490.9 705.2L497.3 705.2L508.2 637.8L532.5 637.8L567.7 705.2L556.8 637.8L582.3 772.6L574.1 705.2L596.9 840.0L591.3 772.6L528.3 840.0L533.7 765.2L542.4 765.2L550.3 690.3L556.4 690.3L566.9 615.5L590.3 615.5L624.3 690.3L613.8 615.5L638.3 765.2L630.4 690.3L652.4 840.0L647.0 765.2L585.9 840.0L589.7 766.4L595.8 766.4L601.5 692.8L605.8 692.8L613.2 619.3L629.8 619.3L653.8 692.8L646.4 619.3L663.8 766.4L658.1 692.8L673.7 840.0L669.9 766.4L631.8 840.0L636.9 777.1L645.1 777.1L652.6 714.1L658.4 714.1L668.4 651.2L690.5 651.2L722.6 714.1L712.7 651.2L735.9 777.1L728.4 714.1L749.2 840.0L744.1 777.1L694.0 840.0L697.7 790.0L703.6 790.0L709.1 740.1L713.2 740.1L720.4 690.1L736.4 690.1L759.6 740.1L752.4 690.1L769.2 790.0L763.7 740.1L778.8 840.0L775.1 790.0L744.0 840.0L749.0 796.2L757.0 796.2L764.4 752.4L770.0 752.4L779.7 708.5L801.3 708.5L832.6 752.4L822.9 708.5L845.6 796.2L838.2 752.4L858.5 840.0L853.5 796.2L812.1 840.0L816.2 776.9L822.8 776.9L828.9 713.7L833.5 713.7L841.5 650.6L859.3 650.6L885.1 713.7L877.1 650.6L895.8 776.9L889.8 713.7L906.5 840.0L902.4 776.9L868.7 840.0L872.2 770.7L877.8 770.7L883.0 701.3L886.9 701.3L893.7 632.0L908.9 632.0L930.8 701.3L924.0 632.0L939.9 770.7L934.8 701.3L949.0 840.0L945.5 770.7L904.3 840.0L910.1 765.1L919.4 765.1L927.9 690.2L934.4 690.2L945.7 615.3L970.8 615.3L1007.1 690.2L995.9 615.3L1022.2 765.1L1013.6 690.2L1037.2 840.0L1031.4 765.1L989.0 840.0L993.5 788.5L1000.5 788.5L1007.1 737.0L1012.1 737.0L1020.7 685.5L1039.9 685.5L1067.7 737.0L1059.1 685.5L1079.2 788.5L1072.7 737.0L1090.7 840.0L1086.3 788.5L1048.5 840.0L1054.5 791.9L1063.9 791.9L1072.6 743.8L1079.3 743.8L1090.8 695.7L1116.4 695.7L1153.5 743.8L1142.1 695.7L1168.9 791.9L1160.2 743.8L1184.3 840.0L1178.4 791.9L1129.8 840.0L1135.3 784.4L1144.0 784.4L1152.1 728.7L1158.3 728.7L1168.9 673.1L1192.5 673.1L1226.8 728.7L1216.2 673.1L1241.0 784.4L1233.0 728.7L1255.2 840.0L1249.7 784.4L1191.0 840.0L1196.4 762.4L1205.1 762.4L1213.1 684.9L1219.3 684.9L1229.8 607.3L1253.4 607.3L1287.5 684.9L1277.0 607.3L1301.7 762.4L1293.7 684.9L1315.8 840.0L1310.3 762.4L1255.3 840.0L1258.7 778.6L1264.2 778.6L1269.2 717.2L1273.0 717.2L1279.6 655.7L1294.4 655.7L1315.8 717.2L1309.2 655.7L1324.6 778.6L1319.6 717.2L1333.5 840.0L1330.1 778.6L1304.8 840.0L1310.7 793.1L1320.0 793.1L1328.7 746.1L1335.3 746.1L1346.7 699.2L1372.1 699.2L1409.0 746.1L1397.6 699.2L1424.3 793.1L1415.6 746.1L1439.5 840.0L1433.6 793.1L1383.9 840.0L1389.5 777.2L1398.3 777.2L1406.5 714.4L1412.7 714.4L1423.4 651.6L1447.4 651.6L1482.2 714.4L1471.4 651.6L1496.6 777.2L1488.4 714.4L1511.0 840.0L1505.4 777.2L1449.8 840.0L1453.8 768.6L1460.1 768.6L1466.0 697.3L1470.5 697.3L1478.2 625.9L1495.5 625.9L1520.4 697.3L1512.7 625.9L1530.8 768.6L1524.9 697.3L1541.2 840.0L1537.2 768.6L1492.6 840.0L1497.1 788.8L1504.2 788.8L1510.7 737.5L1515.7 737.5L1524.3 686.3L1543.4 686.3L1571.2 737.5L1562.6 686.3L1582.7 788.8L1576.2 737.5L1594.2 840.0L1589.8 788.8L1520 840L1520 900Z" fill="#0B6E4F" opacity="0.85"/>

  <rect x="0" y="620" width="1440" height="280" fill="url(#floor)"/>
</svg>
